<svg xmlns="http://www.w3.org/2000/svg" xmlns:xlink="http://www.w3.org/1999/xlink" viewBox="0 0 229.91 214.44"><defs><linearGradient id="a" x1="121.73" x2="186.89" y1="76.79" y2="76.79" gradientUnits="userSpaceOnUse"><stop offset=".23" stop-color="#f39121"/><stop offset=".42" stop-color="#f49e21"/><stop offset=".69" stop-color="#f5a920"/><stop offset="1" stop-color="#f5ac20"/></linearGradient><linearGradient id="c" x1="56.42" x2="124.84" y1="69.58" y2="69.58" xlink:href="#a"/><linearGradient id="d" x1="54.86" x2="202.46" y1="156.11" y2="156.11" gradientUnits="userSpaceOnUse"><stop offset=".45" stop-color="#55c1ef"/><stop offset="1" stop-color="#007ba9"/></linearGradient><linearGradient id="e" x2="118.64" y1="155.85" y2="155.85" gradientUnits="userSpaceOnUse"><stop offset=".8" stop-color="#55c1ef"/><stop offset="1" stop-color="#007ba9"/></linearGradient><linearGradient id="h" x1="106" x2="145.75" y1="84.21" y2="84.21" xlink:href="#a"/><linearGradient id="i" x1="118.21" x2="124.73" y1="63.78" y2="63.78" gradientUnits="userSpaceOnUse"><stop offset="0" stop-color="#f2956f"/><stop offset=".12" stop-color="#f1a082" stop-opacity=".82"/><stop offset=".25" stop-color="#f1a993" stop-opacity=".66"/><stop offset=".38" stop-color="#f0b1a1" stop-opacity=".53"/><stop offset=".52" stop-color="#f0b6ab" stop-opacity=".43"/><stop offset=".66" stop-color="#efbbb3" stop-opacity=".36"/><stop offset=".82" stop-color="#efbdb8" stop-opacity=".31"/><stop offset="1" stop-color="#efbeb9" stop-opacity=".3"/></linearGradient><linearGradient id="j" x1="119.36" x2="225.62" y1="176.9" y2="176.9" gradientTransform="matrix(1 0 -.13 1 22.97 0)" gradientUnits="userSpaceOnUse"><stop offset=".35" stop-color="#e7f5fd"/><stop offset=".81" stop-color="#def1fc"/><stop offset="1" stop-color="#d8eefc"/></linearGradient><linearGradient id="k" x1="71.69" x2="166.75" y1="28.38" y2="28.38" xlink:href="#a"/><linearGradient id="b" x1="135.22" x2="135.22" y1="64.31" y2="41.52" gradientUnits="userSpaceOnUse"><stop offset=".23" stop-color="#fcedda"/><stop offset=".35" stop-color="#fbe6cb"/><stop offset=".54" stop-color="#fadeba"/><stop offset=".75" stop-color="#f9d9af"/><stop offset="1" stop-color="#f9d7ac"/></linearGradient><linearGradient id="l" x1="107.14" x2="107.14" y1="64.31" y2="41.52" xlink:href="#b"/><clipPath id="f"><path fill="none" d="M55.69 154.91l16.85 59 120.05-.6 10.7-57.6s-7.5-40.69-55.84-53.4-74.91 4.34-74.91 4.34z"/></clipPath><clipPath id="g"><path fill="#f9d7ab" d="M106 82.59l.23 20.41 15.53 28.98 13.94-28.75V81.56L106 82.59z"/></clipPath></defs><g data-name="Layer 2"><g data-name="Layer 1"><path fill="url(#a)" d="M164.73 46.51s9.65 8.07 8.34 20.63S165.49 82 166.34 98c.87 16.49 20.55 29.14 20.55 29.14l-65.16-3.5V26.42z"/><path fill="url(#c)" d="M73.5 54.76c-4.16 4.34-11.26 5.46-11.84 15.29-.5 8.39 4.34 10.95 3.26 15.21-1.48 6-8.5 6.16-8.5 14.26a15.34 15.34 0 001.35 5.22s-1.12-6 1.19-8.86c2.53-3.09 8.46-7.54 8.66-11.7s-3.37-7.78-3-13.9A9.23 9.23 0 0166.31 65a13.75 13.75 0 002.13 12.5c4.56 5.9.1 11.5-1.3 12.5s-7.48 6.13-4.49 13.68 2.1 14.45-5.18 20.58h67.37V14.94L93 24.09z"/><path fill="url(#d)" d="M54.86 155.47l16.85 59 120.05-.6 10.7-57.6s-5.94-41.11-54.28-53.82-76.47 4.76-76.47 4.76z"/><path fill="#f9d7ac" d="M6.8 210.33c28.87 10.82 95.91-9.68 95.91-9.68s19.69 21.73 3.39-2.37c0 0 23.76 23.08 4.41-1.36 0 0 26.14 15.61 3.06-3.4 0 0 22.72 6-3.06-4.75-14.59-6.11-65.18-5.85-65.18-5.85l-17.48.3S-6.71 205.26 6.8 210.33z"/><path fill="url(#e)" d="M5.46 182.43c-12.46 23.7-1.25 30.89 10.59 31.41s33.89 1.15 60.27-6c0 0-8.45-13.51 0-24.49l-31-1.41L60.2 163l58.44-65.16s-50.88-5.91-84.51 39C14.58 163 5.46 182.43 5.46 182.43z"/><g fill="#fff" clip-path="url(#f)"><path d="M121.66 182.28l-42.7-85.77 43.41-3-.71 88.77z"/><path d="M121.99 182.28l42.7-85.77-43.41-3 .71 88.77z"/></g><path fill="#f9d7ab" d="M106 82.59l.23 20.41 15.53 28.98 13.94-28.75V81.56L106 82.59z"/><g clip-path="url(#g)"><path fill="url(#h)" d="M106 82.59s5.14 12.33 20.22 11.41a22.1 22.1 0 0019.53-13.7l-13.25-5.94z" opacity=".5"/></g><path fill="#f9d7ac" d="M97.78 65.68s-.69 8.46 4.41 14.17c4.6 5.14 10.66 9.74 18 9.89a22 22 0 0017.67-8.22 23.29 23.29 0 005.94-15.23c.3-5.48 1.67-36.55 1.67-36.55l-21.96-20.5-26.6 18.52z"/><path fill="url(#i)" d="M124.22 69h-5.5a.51.51 0 01-.49-.66l2.9-9.37a.51.51 0 011 0l2.61 9.38a.51.51 0 01-.52.65z" opacity=".5" style="mix-blend-mode:multiply"/><path fill="#f29777" d="M121.8 78.27h-1.69a10 10 0 01-8.28-4.42.74.74 0 01.2-1 .75.75 0 011 .2 8.52 8.52 0 007 3.76h1.69a.75.75 0 010 1.5z"/><path fill="#f9d7ab" d="M96.41 51.06a6.51 6.51 0 00-7.88-.91c-3.89 2.06-4.23 9.48 1 14.16s8.57.46 8.57.46z"/><path fill="#f9d7ab" d="M145.12 51.06a6.51 6.51 0 017.88-.91c3.88 2.06 4.22 9.48-1 14.16s-8.57.46-8.57.46z"/><circle cx="148.43" cy="58.51" r="2.12" fill="#231e46"/><circle cx="130.11" cy="79.86" r="2.12" fill="#231e46"/><path fill="#231e46" d="M135.31 80.57h-5.5v-.81h5.5a12.59 12.59 0 0012.57-12.57V58.9h.81v8.29a13.4 13.4 0 01-13.38 13.38z"/><path fill="#ccdbf2" d="M179.26 211.51a2.93 2.93 0 01-2.93 2.93H65.2a2.93 2.93 0 01-2.93-2.93 2.93 2.93 0 012.93-2.92h111.13a2.93 2.93 0 012.93 2.92z"/><path fill="url(#j)" d="M221.38 209.56a5.72 5.72 0 01-5.5 4.88h-96.52a4.19 4.19 0 01-4.24-4.88l8.48-65.31a5.72 5.72 0 015.51-4.88h96.51a4.19 4.19 0 014.25 4.88z"/><path fill="#ccdbf2" d="M122.24 209.56l8.48-65.31a5.72 5.72 0 015.51-4.88h-7.12a5.72 5.72 0 00-5.51 4.88l-8.48 65.31a4.19 4.19 0 004.24 4.88h7.12a4.19 4.19 0 01-4.24-4.88z"/><path fill="#f08800" d="M200.43 168.14a1.8 1.8 0 011.86 2.05.22.22 0 000 .08 2.5 2.5 0 01-2.42 2.1 1.83 1.83 0 01-1.84-2.1 2.46 2.46 0 012.33-2.13h.08"/><path fill="#006d97" d="M201.55 175.14a1.74 1.74 0 00-1.77-2 2.4 2.4 0 00-2.3 2l-.4 3.08a5.31 5.31 0 00-5.35-5.13 6.16 6.16 0 00-2.1.37l.43-3.28a1.75 1.75 0 00-1.77-2 2.38 2.38 0 00-2.3 2l-.78 5.94c-1.29-2.92-4.87-3.93-8-2.26a7.43 7.43 0 00-2.55 2.24l.77-5.92a1.74 1.74 0 00-1.74-2.06 2.39 2.39 0 00-2.32 2L170 180.38a1.65 1.65 0 01-1.49 1.5 1.21 1.21 0 01-1.33-1.31 1.23 1.23 0 010-.19l1.33-10.21a1.75 1.75 0 00-1.76-2 2.39 2.39 0 00-2.31 2l-1.33 10.23a1.71 1.71 0 01-1.59 1.5 1.25 1.25 0 01-1.21-1.5l1.33-10.2a1.76 1.76 0 00-1.78-2 2.39 2.39 0 00-2.3 2l-1.34 10.39c-.37 2.8 1.06 5.12 4.66 5.12a4.84 4.84 0 003.78-1.59 3.75 3.75 0 003.39 1.59 5.64 5.64 0 005.56-3.49 5.34 5.34 0 005 3.43 7.38 7.38 0 006.26-4 5.29 5.29 0 005.15 3.89 7.36 7.36 0 006.69-5.14l-.38 2.93a1.76 1.76 0 001.75 2.06 2.4 2.4 0 002.32-2l1.15-8.25zm-22.32 6.47a1.88 1.88 0 01-1.83-2.27l.06-.28a2.52 2.52 0 012.35-1.95 1.87 1.87 0 011.83 2.26 2.55 2.55 0 01-2.41 2.24zm11.4 0a1.87 1.87 0 01-1.82-2.27c0-.09 0-.19.05-.29a2.52 2.52 0 012.35-2 1.87 1.87 0 011.79 2.25 2.55 2.55 0 01-2.37 2.27z"/><path fill="url(#k)" d="M109.14 28.5S119 40 130.74 45.31c13.43 6.07 35.55 8 35.55 8s4.82-30.63-16.93-45.94c-17-12-37-7.92-45.77 2.5 0 0-28.78.84-27.14 35 .31 6.66-4.76 11.88-4.76 11.88S104.16 59 109.14 28.5z"/><ellipse cx="107.14" cy="64.72" fill="#efbeb9" opacity=".3" rx="4.86" ry="4.29" style="mix-blend-mode:multiply"/><ellipse cx="135.22" cy="64.72" fill="#efbeb9" opacity=".3" rx="4.86" ry="4.29" style="mix-blend-mode:multiply"/><path fill="url(#b)" stroke="#fff" stroke-miterlimit="10" d="M135.22 64.31a11.4 11.4 0 1111.4-11.4 11.41 11.41 0 01-11.4 11.4z"/><path fill="url(#l)" stroke="#fff" stroke-miterlimit="10" d="M107.14 64.31a11.4 11.4 0 1111.39-11.4 11.41 11.41 0 01-11.39 11.4z"/><circle cx="107.14" cy="51.46" r="2.06" fill="#24244d"/><circle cx="135.22" cy="51.46" r="2.06" fill="#24244d"/><path fill="none" stroke="#fff" stroke-miterlimit="10" d="M123.91 53.84a3.74 3.74 0 00-2.65-1.1h0a3.74 3.74 0 00-2.65 1.1"/></g></g></svg>