<?xml version="1.0" encoding="iso-8859-1"?>
<!-- Uploaded to: SVG Repo, www.svgrepo.com, Generator: SVG Repo Mixer Tools -->
<svg version="1.1" id="Layer_1" xmlns="http://www.w3.org/2000/svg" xmlns:xlink="http://www.w3.org/1999/xlink" 
	 viewBox="0 0 512 512" xml:space="preserve">
<path style="fill:#9F633C;" d="M424,4v84H256H88V4H424z M404,68V24H256H108v44h148H404z"/>
<rect x="256" y="24" style="fill:#C4EFF2;" width="148" height="44"/>
<path style="fill:#F1F1F1;" d="M288.8,292c0,4.4-3.6,8-8,8s-8-3.6-8-8s3.6-8,8-8S288.8,287.6,288.8,292z"/>
<g>
	<circle style="fill:#B78A6D;" cx="280.8" cy="324" r="4"/>
	<path style="fill:#B78A6D;" d="M276.8,324c0,2,1.6,4,4,4s4-2,4-4s-1.6-4-4-4S276.8,322,276.8,324z M272.8,292c0,4.4,3.6,8,8,8
		s8-3.6,8-8s-3.6-8-8-8C276.4,284,272.8,287.6,272.8,292z M424,88v420H256V88H424z"/>
</g>
<rect x="108" y="24" style="fill:#91CECE;" width="148" height="44"/>
<path style="fill:#F1F1F1;" d="M224.8,292c0-4.4,3.6-8,8-8s8,3.6,8,8s-3.6,8-8,8C228.4,300,224.8,296.4,224.8,292z"/>
<g>
	<circle style="fill:#B78A6D;" cx="232.8" cy="324" r="4"/>
	<path style="fill:#B78A6D;" d="M232.8,284c-4.4,0-8,3.6-8,8s3.6,8,8,8s8-3.6,8-8S237.2,284,232.8,284z M256,88v420H88V88H256z
		 M236.8,324c0-2-1.6-4-4-4s-4,2-4,4s1.6,4,4,4S236.8,326,236.8,324z"/>
</g>
<path d="M424,512H88c-2.4,0-4-1.6-4-4V4c0-2.4,1.6-4,4-4h336c2.4,0,4,1.6,4,4v504C428,510.4,426.4,512,424,512z M92,504h328V8H92
	V504z"/>
<path d="M256,512c-2.4,0-4-1.6-4-4V88c0-2.4,1.6-4,4-4s4,1.6,4,4v420C260,510.4,258.4,512,256,512z"/>
<path d="M424,92H88c-2.4,0-4-1.6-4-4s1.6-4,4-4h336c2.4,0,4,1.6,4,4S426.4,92,424,92z"/>
<path d="M404,72H108c-2.4,0-4-1.6-4-4V24c0-2.4,1.6-4,4-4h296c2.4,0,4,1.6,4,4v44C408,70.4,406.4,72,404,72z M112,64h288V28H112V64z
	"/>
<path d="M232.8,304c-6.8,0-12-5.2-12-12s5.2-12,12-12s12,5.2,12,12S239.2,304,232.8,304z M232.8,288c-2.4,0-4,1.6-4,4s1.6,4,4,4
	s4-1.6,4-4S234.8,288,232.8,288z"/>
<circle cx="232.8" cy="324" r="8"/>
<path d="M224,296h-32c-2.4,0-4-1.6-4-4s1.6-4,4-4h32c2.4,0,4,1.6,4,4S226.4,296,224,296z"/>
<path d="M280.8,304c-6.8,0-12-5.2-12-12s5.2-12,12-12s12,5.2,12,12S287.2,304,280.8,304z M280.8,288c-2.4,0-4,1.6-4,4s1.6,4,4,4
	s4-1.6,4-4S282.8,288,280.8,288z"/>
<circle cx="280.8" cy="324" r="8"/>
<path d="M320,296h-32c-2.4,0-4-1.6-4-4s1.6-4,4-4h32c2.4,0,4,1.6,4,4S322.4,296,320,296z"/>
<path d="M256,72c-2.4,0-4-1.6-4-4V24c0-2.4,1.6-4,4-4s4,1.6,4,4v44C260,70.4,258.4,72,256,72z"/>
<path d="M404,112h-16c-2.4,0-4-1.6-4-4s1.6-4,4-4h16c2.4,0,4,1.6,4,4S406.4,112,404,112z"/>
<path d="M372,112h-16c-2.4,0-4-1.6-4-4s1.6-4,4-4h16c2.4,0,4,1.6,4,4S374.4,112,372,112z"/>
<path d="M404,168c-2.4,0-4-1.6-4-4v-56c0-2.4,1.6-4,4-4s4,1.6,4,4v56C408,166.4,406.4,168,404,168z"/>
<path d="M108,492c-2.4,0-4-1.6-4-4v-56c0-2.4,1.6-4,4-4s4,1.6,4,4v56C112,490.4,110.4,492,108,492z"/>
<path d="M108,416c-2.4,0-4-1.6-4-4v-12c0-2.4,1.6-4,4-4s4,1.6,4,4v12C112,414.4,110.4,416,108,416z"/>
</svg>