<?xml version="1.0" encoding="UTF-8"?> <svg xmlns="http://www.w3.org/2000/svg" xmlns:xlink="http://www.w3.org/1999/xlink" width="48px" height="48px" viewBox="0 0 48 48"><g  stroke="none" stroke-width="1" fill="none" fill-rule="evenodd"><path d="M24,48 C10.745166,48 0,37.254834 0,24 C0,10.745166 10.745166,0 24,0 C37.254834,0 48,10.745166 48,24 C48,37.254834 37.254834,48 24,48 Z M24.8874423,37 L24.8874423,26.9313673 L21.4991911,26.9313673 L21.4991911,23.0074424 L24.8874423,23.0074424 L24.8874423,20.1136549 C24.8874423,16.7554933 26.9384518,14.9268504 29.9342573,14.9268504 C31.369258,14.9268504 32.6026882,15.0336877 32.9620435,15.0815076 L32.9620435,18.591097 L30.8841988,18.5920054 C29.255094,18.5920054 28.9396235,19.3661971 28.9396235,20.5022639 L28.9396235,23.0074424 L32.8252423,23.0074424 L32.3191989,26.9313673 L28.9396235,26.9313673 L28.9396235,37 L35.5651006,37 C36.3574582,37 37,36.3574631 37,35.56491 L37,12.4349893 C37,11.6423354 36.357559,11 35.5651006,11 L12.4350007,11 C11.6423403,11 11,11.6423354 11,12.4349893 L11,35.56491 C11,36.3573623 11.6422395,37 12.4350007,37 L24.8874423,37 Z" id="facebook" fill="#FFFFFF"></path></g></svg>