<?xml version="1.0" encoding="UTF-8"?> <svg xmlns="http://www.w3.org/2000/svg" xmlns:xlink="http://www.w3.org/1999/xlink" width="45px" height="45px" viewBox="0 0 45 45" version="1.1"><!-- Generator: Sketch 64 (93537) - https://sketch.com --><title>whatsapp-white</title><desc>Created with Sketch.</desc><g id="Symbols" stroke="none" stroke-width="1" fill="none" fill-rule="evenodd"><path d="M37.7156203,6.43353558 C33.6317633,2.26365141 27.9864316,0 22.2209865,0 C9.96941556,0 0.12011344,9.88858246 0.240226881,21.9216768 C0.240226881,25.7341423 1.32124785,29.4274683 3.12294945,32.7633756 L0,44.0816327 L11.6510037,41.103144 C14.8940666,42.8902372 18.4974698,43.724214 22.100873,43.724214 L22.100873,43.724214 C34.2323305,43.724214 44.0816327,33.8356315 44.0816327,21.8025372 C44.0816327,15.9646994 41.7994773,10.4842802 37.7156203,6.43353558 Z M22.2209865,40.030888 L22.2209865,40.030888 C18.9779236,40.030888 15.7348607,39.1969112 12.9722516,37.5289575 L12.2515709,37.1715389 L5.28499138,38.9586321 L7.08669299,32.1676779 L6.60623923,31.4528406 C1.32124785,22.9939327 3.8436301,11.7948152 12.4917978,6.55267512 C21.1399655,1.31053502 32.3105155,3.81246553 37.5955069,12.390513 C42.8804982,20.9685604 40.358116,32.0485383 31.7099483,37.2906784 C28.9473392,39.0777716 25.5841628,40.030888 22.2209865,40.030888 Z M32.7909692,26.8063982 L31.4697214,26.2107005 C31.4697214,26.2107005 29.5479064,25.3767237 28.346772,24.7810259 C28.2266585,24.7810259 28.1065451,24.6618864 27.9864316,24.6618864 C27.6260913,24.6618864 27.3858644,24.7810259 27.1456375,24.9001655 L27.1456375,24.9001655 C27.1456375,24.9001655 27.0255241,25.019305 25.3439359,26.9255378 C25.2238225,27.1638169 24.9835956,27.2829564 24.7433687,27.2829564 L24.6232553,27.2829564 C24.5031419,27.2829564 24.262915,27.1638169 24.1428015,27.0446773 L23.5422343,26.8063982 L23.5422343,26.8063982 C22.2209865,26.2107005 21.0198521,25.4958632 20.0589446,24.5427468 C19.8187177,24.3044677 19.4583774,24.0661886 19.2181505,23.8279095 C18.3773564,22.9939327 17.5365623,22.0408163 16.9359951,20.9685604 L16.8158817,20.7302813 C16.6957682,20.6111418 16.6957682,20.4920022 16.5756548,20.2537231 C16.5756548,20.015444 16.5756548,19.7771649 16.6957682,19.6580254 C16.6957682,19.6580254 17.176222,19.0623276 17.5365623,18.704909 C17.7767892,18.4666299 17.8969026,18.1092113 18.1371295,17.8709322 C18.3773564,17.5135135 18.4974698,17.0369553 18.3773564,16.6795367 C18.257243,16.0838389 16.8158817,12.8670712 16.4555413,12.1522339 C16.2153145,11.7948152 15.9750876,11.6756757 15.6147473,11.5565361 L15.2544069,11.5565361 C15.0141801,11.5565361 14.6538397,11.5565361 14.2934994,11.5565361 C14.0532725,11.5565361 13.8130457,11.6756757 13.5728188,11.6756757 L13.4527053,11.7948152 C13.2124785,11.9139548 12.9722516,12.1522339 12.7320247,12.2713734 C12.4917978,12.5096525 12.3716844,12.7479316 12.1314575,12.9862107 C11.2906634,14.0584666 10.8102096,15.3690017 10.8102096,16.6795367 L10.8102096,16.6795367 C10.8102096,17.6326531 11.0504365,18.5857694 11.4107768,19.4197463 L11.5308903,19.7771649 C12.6119112,22.0408163 14.0532725,24.0661886 15.9750876,25.8532819 L16.4555413,26.32984 C16.8158817,26.6872587 17.176222,26.9255378 17.4164489,27.2829564 C19.9388311,29.4274683 22.8215537,30.9762824 26.0646166,31.8102592 C26.4249569,31.9293988 26.9054107,31.9293988 27.265751,32.0485383 L27.265751,32.0485383 C27.6260913,32.0485383 28.1065451,32.0485383 28.4668854,32.0485383 C29.0674526,32.0485383 29.7881332,31.8102592 30.268587,31.5719801 C30.6289273,31.333701 30.8691542,31.333701 31.1093811,31.095422 L31.349608,30.8571429 C31.5898348,30.6188638 31.8300617,30.4997242 32.0702886,30.2614451 C32.3105155,30.023166 32.5507424,29.7848869 32.6708558,29.5466078 C32.9110827,29.0700496 33.0311961,28.4743519 33.1513096,27.8786542 C33.1513096,27.6403751 33.1513096,27.2829564 33.1513096,27.0446773 C33.1513096,27.0446773 33.0311961,26.9255378 32.7909692,26.8063982 Z" id="whatsapp-white" fill="#FFFFFF" fill-rule="nonzero"></path></g></svg> 