<?xml version="1.0" encoding="UTF-8"?> <svg xmlns="http://www.w3.org/2000/svg" xmlns:xlink="http://www.w3.org/1999/xlink" width="48px" height="48px" viewBox="0 0 48 48"><g  stroke="none" stroke-width="1" fill="none" fill-rule="evenodd"><path d="M24,48 C10.745166,48 0,37.254834 0,24 C0,10.745166 10.745166,0 24,0 C37.254834,0 48,10.745166 48,24 C48,37.254834 37.254834,48 24,48 Z M20.696,28.5132773 L20.695,19.4584947 L29.341,24.001496 L20.696,28.5132773 Z M39.68,17.889442 C39.68,17.889442 39.367,15.6687993 38.408,14.6909107 C37.191,13.406866 35.827,13.4008233 35.202,13.3262987 C30.724,13 24.007,13 24.007,13 L23.993,13 C23.993,13 17.276,13 12.798,13.3262987 C12.172,13.4008233 10.809,13.406866 9.591,14.6909107 C8.632,15.6687993 8.32,17.889442 8.32,17.889442 C8.32,17.889442 8,20.4978153 8,23.105182 L8,25.5504067 C8,28.15878 8.32,30.7661467 8.32,30.7661467 C8.32,30.7661467 8.632,32.9867893 9.591,33.9646773 C10.809,35.2487227 12.408,35.2084387 13.12,35.3423827 C15.68,35.5901273 24,35.6666667 24,35.6666667 C24,35.6666667 30.724,35.656596 35.202,35.3302973 C35.827,35.2547653 37.191,35.2487227 38.408,33.9646773 C39.367,32.9867893 39.68,30.7661467 39.68,30.7661467 C39.68,30.7661467 40,28.15878 40,25.5504067 L40,23.105182 C40,20.4978153 39.68,17.889442 39.68,17.889442 Z" id="youtube" fill="#FFFFFF"></path></g></svg>